<svg xmlns="http://www.w3.org/2000/svg" viewBox="0 0 64 64">
    <rect width="64" height="64" rx="12" fill="#e8d8b8"></rect>

    <path fill="#7a1c1c" transform="translate(10 48) scale(52)" d="M0.040 0.000
           L0.040 -0.076
           L0.057 -0.076
           Q0.089 -0.076 0.082 -0.106
           L0.065 -0.174
           Q0.054 -0.218 0.062 -0.261
           Q0.071 -0.305 0.099 -0.340
           L0.131 -0.384
           L0.096 -0.417
           Q0.070 -0.442 0.057 -0.473
           Q0.044 -0.504 0.044 -0.533
           Q0.044 -0.560 0.052 -0.586
           Q0.059 -0.613 0.072 -0.647
           L0.106 -0.647
           L0.106 -0.631
           Q0.106 -0.613 0.114 -0.591
           Q0.123 -0.570 0.148 -0.546
           L0.397 -0.310
           Q0.398 -0.326 0.410 -0.353
           Q0.423 -0.381 0.436 -0.402
           L0.453 -0.431
           L0.435 -0.434
           Q0.401 -0.438 0.388 -0.457
           Q0.374 -0.476 0.374 -0.519
           Q0.374 -0.545 0.380 -0.578
           Q0.385 -0.610 0.398 -0.647
           L0.433 -0.647
           L0.433 -0.630
           Q0.433 -0.598 0.472 -0.592
           L0.516 -0.586
           Q0.574 -0.578 0.574 -0.507
           Q0.574 -0.486 0.570 -0.465
           Q0.566 -0.445 0.560 -0.418
           L0.506 -0.425
           L0.479 -0.381
           Q0.460 -0.351 0.454 -0.322
           Q0.448 -0.293 0.448 -0.261
           L0.518 -0.196
           Q0.541 -0.174 0.551 -0.147
           Q0.562 -0.119 0.562 -0.088
           Q0.562 -0.058 0.552 -0.036
           Q0.543 -0.014 0.528 0.010
           L0.504 0.010
           Q0.503 -0.007 0.494 -0.027
           Q0.485 -0.047 0.456 -0.073
           L0.167 -0.350
           L0.155 -0.330
           Q0.135 -0.298 0.134 -0.271
           Q0.133 -0.244 0.154 -0.207
           L0.186 -0.147
           Q0.203 -0.117 0.208 -0.081
           Q0.212 -0.046 0.195 0.000
           Z

           M0.657 0.139
           L0.660 0.075
           L0.837 0.075
           L0.834 0.139
           Z"></path>
</svg>